REM MD5 7bd41f20cf41fb43af15723b9782b707
FILE "Andretti Racing (Europe).bin" BINARY
  TRACK 01 MODE2/2352
    INDEX 01 00:00:00
  TRACK 02 AUDIO
    INDEX 00 54:18:18
    INDEX 01 54:20:18
  TRACK 03 AUDIO
    INDEX 00 56:31:24
    INDEX 01 56:33:24
  TRACK 04 AUDIO
    INDEX 00 59:01:48
    INDEX 01 59:03:48
  TRACK 05 AUDIO
    INDEX 00 61:39:20
    INDEX 01 61:41:20
  TRACK 06 AUDIO
    INDEX 00 64:03:60
    INDEX 01 64:05:60
REM LEADOUT 66:59:72
